<?xml version="1.0" encoding="utf-8"?>
<!-- Generator: Adobe Illustrator 18.1.0, SVG Export Plug-In . SVG Version: 6.00 Build 0)  -->
<svg xmlns="http://www.w3.org/2000/svg" xmlns:xlink="http://www.w3.org/1999/xlink" version="1.1" id="Layer_1" x="0px" y="0px" viewBox="0 0 197.6 217.1" xml:space="preserve">
<path fill="#32281E" d="M77.4,158c-14.9,14.9-61.3,18.1-74.4,5c-9.9-10,7.8-37.6,14.9-44.7c17.7-17.7,59.9,6.7,75.9,22.3  c0.3,0.3,0.3,0.7,0,1L77.4,158z M99.7,134.7c0.3,0.3,0.7,0.3,1,0l16.4-16.4c25.7-25.7,5.8-93.5-14.9-114.1  C92.1-6,72.9,3.7,57.5,19.1C39.8,36.8,20.8,71.6,37.7,88.5C52.8,103.6,83.4,118.6,99.7,134.7z M99.7,147.6L83.3,164  c-14.9,14.9-31.6,47.8-26.7,52.7c3.7,3.7,28.3-17.1,35.4-24.2c17.3-17.3,14.2-38.3,8.7-44.9C100.5,147.3,100,147.3,99.7,147.6z   M196.9,98.8c-7.7-7.7-48.2-0.2-73.8,25.4l-16.4,16.4c-0.3,0.3-0.3,0.7,0,1c5.7,6.4,6.5,22.4,12.1,27.9c6.3,6.3,36.2-17.6,54-35.4  C188.1,118.8,200.7,102.6,196.9,98.8z"/>
</svg>
