<?xml version="1.0" encoding="utf-8"?>
<!-- Generator: Adobe Illustrator 18.1.0, SVG Export Plug-In . SVG Version: 6.00 Build 0)  -->
<svg version="1.1" id="Layer_1" xmlns="http://www.w3.org/2000/svg" xmlns:xlink="http://www.w3.org/1999/xlink" x="0px" y="0px"
	 viewBox="333.8 161.7 294.8 234.1" enable-background="new 333.8 161.7 294.8 234.1" xml:space="preserve">
<path fill="#FAF5F0" d="M396.5,348c-12.1,12.1-49.6,14.6-60.3,4c-8.1-8.1,6.3-30.5,12.1-36.2c14.3-14.3,48.5,5.4,61.5,18.1
	c0.2,0.2,0.2,0.6,0,0.8L396.5,348z M414.6,329.1c0.2,0.2,0.6,0.2,0.8,0l13.3-13.3c20.8-20.8,4.7-75.7-12.1-92.4
	c-8.2-8.2-23.7-0.4-36.2,12.1c-14.4,14.4-29.8,42.6-16.1,56.2C376.6,304,401.3,316.1,414.6,329.1z M414.5,339.6l-13.2,13.2
	c-12.1,12.1-25.6,38.7-21.6,42.7c3,3,22.9-13.9,28.6-19.6c14-14,11.5-31,7-36.3C415.2,339.3,414.8,339.3,414.5,339.6z M433.4,320.7
	l-13.3,13.3c-0.2,0.2-0.2,0.6,0,0.8c4.6,5.2,5.3,18.1,9.8,22.6c5.1,5.1,29.3-14.3,43.7-28.6c12.5-12.5,22.7-25.5,19.6-28.6
	C486.9,293.8,454.2,299.9,433.4,320.7z M571.7,221.9l9.2-3.6c0.2-0.1,0.2-0.2,0.2-0.4c-3.6-8.9-15.9-25.7-25.8-21.8
	c-4,1.5-15.7,9.3-13.5,14.9C544.6,218.4,563.3,225.2,571.7,221.9z M607.9,166.1c-2.2-5.7-11.4-5.2-20-1.9
	c-10,3.9-23.4,14.2-19.8,23.7c3.3,8.5,12.7,19.6,16.3,28.8c0.1,0.2,0.2,0.2,0.4,0.2l9.2-3.6C608.5,207.7,612.4,177.7,607.9,166.1z
	 M582.2,221.7l-9.2,3.6c-8.4,3.3-20.6,13.2-19.5,16c0.8,2.1,14-1.8,18-3.4c9.8-3.8,12.2-12.5,11.1-16
	C582.5,221.8,582.3,221.7,582.2,221.7z M628.6,219.4c-1.7-4.4-18.8-8.4-33.2-2.8l-9.2,3.6c-0.1,0.1-0.2,0.2-0.2,0.4
	c1.1,3.5-1.3,9.9-0.1,13c1.4,3.6,17.2-0.6,27.2-4.5C621.7,225.7,629.4,221.6,628.6,219.4z"/>
</svg>
